<svg width="37" height="37" viewBox="0 0 37 37" fill="none" xmlns="http://www.w3.org/2000/svg">
<g id="Frame 280">
<circle id="Ellipse 15" cx="18.66" cy="18.66" r="16.66" stroke="#90A3C0" stroke-width="2.38"/>
<g id="eyes">
<path id="&#232;&#183;&#175;&#229;&#190;&#132;" d="M10.5 15.8764C10.5 16.5824 10.8767 17.2349 11.4881 17.5879C12.0996 17.9409 12.8529 17.9409 13.4644 17.5879C14.0758 17.2349 14.4525 16.5824 14.4525 15.8764C14.4525 14.7849 13.5677 13.9001 12.4762 13.9001C11.3848 13.9001 10.5 14.7849 10.5 15.8764H10.5Z" fill="#90A3C0"/>
<path id="&#232;&#183;&#175;&#229;&#190;&#132;_2" d="M24.0999 15.8764C24.0999 16.9678 24.9847 17.8526 26.0761 17.8526C27.1676 17.8526 28.0524 16.9678 28.0524 15.8764C28.0524 14.7849 27.1676 13.9001 26.0761 13.9001C24.9847 13.9001 24.0999 14.7849 24.0999 15.8764Z" fill="#90A3C0"/>
</g>
<path id="mouth" d="M12.2 24.1003C12.2 24.1003 14.4846 27.5003 19.0032 27.5003C23.5217 27.5003 25.8 24.1003 25.8 24.1003" stroke="#90A3C0" stroke-width="2.38" stroke-linecap="round"/>
</g>
</svg>
