<svg width="47" height="46" viewBox="0 0 47 46" fill="none" xmlns="http://www.w3.org/2000/svg">
<g id="Heart">
<path id="Vector" d="M23.2287 10.4827L22.1826 11.4739C22.1892 11.4805 22.1958 11.4871 22.2024 11.4936L23.2287 10.4827ZM26.0738 15.3037C26.6408 15.8617 27.5601 15.8616 28.1268 15.3033C28.6938 14.745 28.6936 13.84 28.1264 13.2819L26.0738 15.3037ZM18.2462 34.9167C15.3123 32.6397 12.1042 30.4161 9.55918 27.5946C7.0639 24.8283 5.32326 21.6005 5.32326 17.4129H2.41968C2.41968 22.4926 4.5693 26.3679 7.38813 29.4928C10.1572 32.5625 13.6871 35.0183 16.4487 37.1616L18.2462 34.9167ZM5.32326 17.4129C5.32326 13.3139 7.67588 9.87646 10.8872 8.43128C14.007 7.02731 18.199 7.39912 22.1826 11.4739L24.2747 9.49152C19.5479 4.65665 14.0613 3.8598 9.6801 5.83142C5.39045 7.76186 2.41968 12.2444 2.41968 17.4129H5.32326ZM16.4487 37.1616C17.4402 37.9312 18.5046 38.7518 19.5833 39.3723C20.6617 39.9926 21.8923 40.4969 23.2287 40.4969V37.6383C22.6294 37.6383 21.9242 37.4082 21.0483 36.9042C20.1728 36.4005 19.2645 35.707 18.2462 34.9167L16.4487 37.1616ZM30.0087 37.1616C32.7702 35.0183 36.3002 32.5625 39.0693 29.4928C41.8881 26.3679 44.0377 22.4926 44.0377 17.4129H41.1341C41.1341 21.6005 39.3935 24.8283 36.8982 27.5946C34.3531 30.4161 31.145 32.6397 28.2112 34.9167L30.0087 37.1616ZM44.0377 17.4129C44.0377 12.2444 41.0669 7.76186 36.7772 5.83142C32.3961 3.8598 26.9095 4.65665 22.1826 9.49152L24.2747 11.4739C28.2583 7.39912 32.4503 7.02731 35.5701 8.43128C38.7814 9.87646 41.1341 13.3139 41.1341 17.4129H44.0377ZM28.2112 34.9167C27.1928 35.707 26.2846 36.4005 25.4091 36.9042C24.5332 37.4082 23.828 37.6383 23.2287 37.6383V40.4969C24.5651 40.4969 25.7956 39.9926 26.874 39.3723C27.9528 38.7518 29.0171 37.9312 30.0087 37.1616L28.2112 34.9167ZM22.2024 11.4936L26.0738 15.3037L28.1264 13.2819L24.255 9.47186L22.2024 11.4936Z" fill="#1C274C"/>
</g>
</svg>
