<svg width="48" height="51" viewBox="0 0 48 51" fill="none" xmlns="http://www.w3.org/2000/svg">
<path d="M35.2434 2.58337H12.6006C9.84136 2.58337 8.46177 2.58337 7.3491 2.95602C5.23917 3.66266 3.58265 5.30402 2.86948 7.39464C2.49341 8.49713 2.49341 9.86411 2.49341 12.5981V44.6909C2.49341 46.6576 4.83865 47.7012 6.32222 46.3945C7.19381 45.6268 8.50729 45.6268 9.37888 46.3945L10.5291 47.4077C12.0567 48.7531 14.3587 48.7531 15.8863 47.4077C17.4139 46.0623 19.7158 46.0623 21.2434 47.4077C22.771 48.7531 25.0729 48.7531 26.6006 47.4077C28.1282 46.0623 30.4301 46.0623 31.9577 47.4077C33.4853 48.7531 35.7872 48.7531 37.3148 47.4077L38.4651 46.3945C39.3367 45.6268 40.6501 45.6268 41.5217 46.3945C43.0053 47.7012 45.3506 46.6576 45.3506 44.6909V12.5981C45.3506 9.86411 45.3505 8.49713 44.9744 7.39464C44.2613 5.30402 42.6048 3.66266 40.4948 2.95602C39.3822 2.58337 38.0027 2.58337 35.2434 2.58337Z" stroke="#0ECC8D" stroke-width="3.4375"/>
<path d="M17.97 21.8333V21.8333C19.8058 23.8122 22.937 23.8122 24.7728 21.8332L29.8747 16.3333" stroke="#0ECC8D" stroke-width="3.4375" stroke-linecap="round" stroke-linejoin="round"/>
<path d="M13.2078 33.5208H34.6363" stroke="#0ECC8D" stroke-width="3.4375" stroke-linecap="round"/>
</svg>
