<svg width="49" height="47" viewBox="0 0 49 47" fill="none" xmlns="http://www.w3.org/2000/svg">
<path d="M46.5095 20.2494V23.4279C46.5095 33.4169 46.5095 38.4116 43.2652 41.5147C40.0211 44.618 34.7994 44.618 24.3563 44.618C13.9132 44.618 8.69164 44.618 5.4474 41.5147C2.20312 38.4116 2.20312 33.4169 2.20312 23.4279C2.20312 13.4389 2.20312 8.44433 5.4474 5.34113C8.69164 2.23791 13.9132 2.23792 24.3563 2.23792H27.6793" stroke="#5D95E8" stroke-width="3.1785" stroke-linecap="round"/>
<path d="M34.6621 5.3212L36.0996 3.94635C38.4811 1.66844 42.3421 1.66844 44.7236 3.94635C47.1049 6.22427 47.1049 9.9175 44.7236 12.1954L43.2861 13.5702M34.6621 5.3212C34.6621 5.3212 34.8417 8.24273 37.5369 10.8206C40.2318 13.3984 43.2861 13.5702 43.2861 13.5702M34.6621 5.3212L21.4481 17.9608C20.5531 18.8169 20.1056 19.2448 19.7207 19.7169C19.2667 20.2736 18.8775 20.876 18.5599 21.5134C18.2907 22.0538 18.0905 22.628 17.6903 23.7767L16.4088 27.4541M43.2861 13.5702L30.0722 26.2098C29.1772 27.0659 28.7297 27.4939 28.2361 27.8622C27.6541 28.2964 27.0243 28.6687 26.3579 28.9725C25.793 29.23 25.1927 29.4213 23.9918 29.8042L20.1473 31.0301M16.4088 27.4541L15.5795 29.8335C15.3826 30.3988 15.5364 31.0218 15.9768 31.4433C16.4173 31.8645 17.0688 32.0116 17.6597 31.8232L20.1473 31.0301M16.4088 27.4541L20.1473 31.0301" stroke="#5D95E8" stroke-width="3.1785"/>
</svg>
