<svg width="43" height="41" viewBox="0 0 43 41" fill="none" xmlns="http://www.w3.org/2000/svg">
<g id="Share">
<path id="Vector" d="M39.3232 20.5001C39.3232 28.5532 39.3232 32.5799 36.7403 35.0816C34.1576 37.5834 30.0005 37.5834 21.6866 37.5834C13.3727 37.5834 9.21568 37.5834 6.63287 35.0816C4.05005 32.5799 4.05005 28.5532 4.05005 20.5001C4.05005 12.4469 4.05005 8.42034 6.63287 5.91855C9.21568 3.41675 13.3727 3.41675 21.6866 3.41675" stroke="#1C274C" stroke-width="3" stroke-linecap="round"/>
<path id="Vector_2" d="M29.0145 5.86676L33.172 9.35683C36.0339 11.7593 37.4647 12.9606 37.4647 14.5207C37.4647 16.0809 36.0339 17.2821 33.172 19.6845L29.0145 23.1746C27.7561 24.2311 27.1269 24.7593 26.6114 24.5312C26.0958 24.3032 26.0958 23.4967 26.0958 21.8837V19.2796C20.8049 19.2796 15.073 21.6592 12.8684 25.6249C12.8684 12.9344 20.7068 9.76177 26.0958 9.76177V7.15773C26.0958 5.54468 26.0958 4.73816 26.6114 4.51013C27.1269 4.28212 27.7561 4.81032 29.0145 5.86676Z" stroke="#1C274C" stroke-width="3" stroke-linecap="round" stroke-linejoin="round"/>
</g>
</svg>
