<svg width="49" height="46" viewBox="0 0 49 46" fill="none" xmlns="http://www.w3.org/2000/svg">
<g id="Star">
<path id="Vector" d="M20.3948 14.3123C22.0352 11.4617 22.8556 10.0364 24.0818 10.0364C25.3081 10.0364 26.1285 11.4617 27.7689 14.3123L28.1935 15.0498C28.6595 15.8599 28.8926 16.2649 29.2561 16.5322C29.6195 16.7994 30.0723 16.8986 30.9776 17.097L31.8016 17.2776C34.9875 17.9759 36.5803 18.3249 36.9592 19.5054C37.3382 20.6857 36.2523 21.9156 34.0806 24.3758L33.5185 25.0121C32.9014 25.7111 32.5929 26.0607 32.4541 26.4932C32.3153 26.9255 32.3619 27.392 32.4551 28.3246L32.5401 29.1737C32.8686 32.4558 33.0325 34.097 32.0404 34.8264C31.0483 35.556 29.5571 34.8909 26.5743 33.5606L25.8026 33.2163C24.9548 32.8385 24.531 32.6493 24.0818 32.6493C23.6327 32.6493 23.2089 32.8385 22.3611 33.2163L21.5894 33.5606C18.6067 34.8909 17.1154 35.556 16.1232 34.8264C15.1311 34.097 15.2952 32.4558 15.6236 29.1737L15.7085 28.3246C15.8018 27.392 15.8485 26.9255 15.7097 26.4932C15.5709 26.0607 15.2623 25.7111 14.6451 25.0121L14.0833 24.3758C11.9114 21.9156 10.8255 20.6857 11.2045 19.5054C11.5835 18.3249 13.1763 17.9759 16.362 17.2776L17.1862 17.097C18.0915 16.8986 18.5441 16.7994 18.9076 16.5322C19.2711 16.2649 19.5042 15.8599 19.9702 15.0498L20.3948 14.3123Z" stroke="#1C274C" stroke-width="3"/>
<path id="Vector_2" d="M24.5137 3.83325V7.66659" stroke="#1C274C" stroke-width="1.5" stroke-linecap="round"/>
<path id="Vector_3" d="M24.5137 38.3333V42.1666" stroke="#1C274C" stroke-width="1.5" stroke-linecap="round"/>
<path id="Vector_4" d="M4.72632 23H8.68379" stroke="#1C274C" stroke-width="1.5" stroke-linecap="round"/>
<path id="Vector_5" d="M40.3435 23H44.301" stroke="#1C274C" stroke-width="1.5" stroke-linecap="round"/>
<path id="Vector_6" d="M12.6411 34.4999L13.3199 33.8425" stroke="#1C274C" stroke-width="1.5" stroke-linecap="round"/>
<path id="Vector_7" d="M35.7068 12.1579L36.3861 11.5" stroke="#1C274C" stroke-width="1.5" stroke-linecap="round"/>
<path id="Vector_8" d="M36.386 34.4999L35.7073 33.8425" stroke="#1C274C" stroke-width="1.5" stroke-linecap="round"/>
<path id="Vector_9" d="M13.3203 12.1579L12.6411 11.5" stroke="#1C274C" stroke-width="1.5" stroke-linecap="round"/>
</g>
</svg>
